PathFileType	4	(X/Y/Z)	Patient4_TMGait_0pt5_01_left_03.trc.trc
DataRate	CameraRate	NumFrames	NumMarkers	Units	OrigDataRate	OrigDataStartFrame	OrigNumFrames
71.794871794872	71.794871794872	5	33	mm	71.794871794872	18	       141
Frame#	Time	L.ASIS			Sacral			L.Shoulder			Chest			R.Shoulder			Neck			R.ASIS			R.Thigh.Superior			R.Thigh.Lateral			R.Thigh.Inferior			R.Patella			L.Thigh.Superior			L.Thigh.Lateral			L.Thigh.Inferior			L.Patella			L.Shank.Superior			L.Shank.Lateral			L.Shank.Inferior			R.Shank.Superior			R.Shank.Lateral			R.Shank.Inferior			R.Heel			R.Midfoot.Superior			R.Midfoot.Lateral			R.Toe			L.Heel			L.Midfoot.Lateral			L.Midfoot.Superior			L.Toe			L.Elbow			L.Wrist			R.Elbow			R.Wrist			
		X1	Y1	Z1	X2	Y2	Z2	X3	Y3	Z3	X4	Y4	Z4	X5	Y5	Z5	X6	Y6	Z6	X7	Y7	Z7	X8	Y8	Z8	X9	Y9	Z9	X10	Y10	Z10	X11	Y11	Z11	X12	Y12	Z12	X13	Y13	Z13	X14	Y14	Z14	X15	Y15	Z15	X16	Y16	Z16	X17	Y17	Z17	X18	Y18	Z18	X19	Y19	Z19	X20	Y20	Z20	X21	Y21	Z21	X22	Y22	Z22	X23	Y23	Z23	X24	Y24	Z24	X25	Y25	Z25	X26	Y26	Z26	X27	Y27	Z27	X28	Y28	Z28	X29	Y29	Z29	X30	Y30	Z30	X31	Y31	Z31	X32	Y32	Z32	X33	Y33	Z33	

18	4.056785714286	736.524013817387	964.416365820365	365.757968175491	540.755931394072	1010.354302125083	545.959299121991	704.795215170422	1438.137366755435	353.218664062605	824.115270700666	1362.773234656280	499.742990786970	763.799555798733	1436.920128028231	683.988403732083	725.777314195134	1495.940566385508	504.055810404057	777.877997797865	939.059797134967	637.193270705711	793.251531610766	732.429057839547	603.779232214326	705.676526452514	631.391991743547	669.977815306884	765.960987654296	572.299096279814	582.981264643326	754.947315324232	485.542936423042	587.992131371005	809.725346283819	775.087285899541	396.356520893521	762.840387527468	652.841504591846	316.349002536492	857.610437556190	587.511736747217	385.926443427542	885.710127100459	526.118530280961	381.806628923398	874.166846578973	457.222928816266	367.179451367901	821.491662694412	323.920602398844	308.960433427394	912.797454952499	230.332633700252	368.080322616811	722.927861781248	398.993585024101	595.387888035924	647.724456526705	299.251202923900	657.688441586767	679.885069652257	203.272177059081	592.132605065651	533.895776502387	43.318639905148	563.211524171026	706.130006309030	96.564738255673	596.891139019134	617.803065796444	36.409346341764	637.319056605086	826.008390229685	42.662829585272	624.751071250090	842.099284831421	39.887185279853	397.942988160598	921.624655113041	53.458545771564	324.164252416124	981.343432051935	139.134105483452	348.958008398699	1119.422938540878	126.415529562694	334.469452874124	587.980769059927	1101.091577791158	246.570443303221	573.331851424042	842.880023828832	232.708158895437	869.895939546426	1118.975817284013	809.198441154437	1111.728761169808	1138.087243173496	738.019830461086	
19	4.070714285714	735.834747557622	963.497826119873	364.413125009876	540.564309513453	1009.377932531238	545.246273026754	703.002876009576	1437.533828764396	351.898235905944	822.860563664735	1362.321296447123	498.060371477063	762.804060995158	1436.336836261098	682.447949988163	724.318564903862	1495.300059096782	502.708295639639	777.941697078215	938.627105361540	635.847948787900	792.098283269898	731.568201089221	602.587579906369	704.007364400424	630.759126084262	669.058325931387	763.632223487315	571.328835368850	582.079370703168	751.947215430459	484.432898093747	587.093924410910	808.872661259474	773.790673569770	394.581631118767	760.580045431524	651.045089273131	315.876033288934	856.047940780678	586.038405718840	384.436543212466	883.960709183346	525.041224680484	380.996946082227	872.891625253584	456.245917990988	366.873902991376	821.093071437667	322.391954682960	309.724359541029	913.446424164877	229.995478093311	368.734158885726	719.112568600044	398.051921348683	594.636749103786	643.220850483594	299.015100603116	657.248080921620	674.139192495847	202.706591805370	591.724298208872	526.931845743713	43.333571968327	563.246748435559	699.164623012064	96.478343041422	596.800248784392	610.851669799457	36.382568368679	637.319733163630	819.070795319761	42.557712679114	624.753024597412	844.149785979259	40.304904733649	400.137162070050	923.231162246261	52.972410775083	325.952239604188	983.151893023658	138.420791161886	349.794140058781	1120.858596662176	125.174597318825	334.951882778506	583.079233681376	1101.706228910369	246.348801419138	565.128930442443	843.688392762196	233.305669762200	872.856647323230	1119.418473136792	805.502588056773	1111.895645330601	1148.386281981585	730.506949610572	
20	4.084642857143	735.507839816999	962.494095387408	362.964357534530	540.688675897831	1008.200855620091	544.357201658923	701.046056766002	1436.857994545283	350.413024262573	821.495221258871	1361.930564044574	496.236596146214	761.587439145340	1435.704415012047	680.773915347962	722.614973241529	1494.606228692136	501.208587250462	778.245891246283	938.196873236320	634.404263828636	791.066958280479	730.637820575194	601.332990305101	702.359043176928	630.113826735345	668.086651102242	761.306766337504	570.290817045330	581.172920349240	748.888281576454	483.280588103627	586.161940272719	808.839609235874	772.626814825014	392.582656717554	758.800831651297	649.088362529016	315.611670281906	855.207281673614	584.580429157307	382.820965766223	882.752676914276	523.559319958198	380.113627597384	871.641891170823	454.617632668357	366.647374306275	819.465258007064	320.743797098552	310.641188602727	912.009321918025	228.730349507186	369.445756154081	715.229407497784	397.090132437448	593.872749594536	638.663018205591	298.781588106472	656.816326748850	668.347767750619	202.142571066923	591.331489897303	519.933241719883	43.339213380730	563.288607788607	692.177712632224	96.384832046627	596.733821539681	603.858509142101	36.335361248570	637.306673397631	812.090471432559	42.444079608820	624.756191698202	842.349866995762	40.644353769961	402.311305687992	920.952773131853	51.879751122201	327.581706453126	981.954188746278	136.328581186405	350.630123821173	1119.065354941263	121.183459513291	335.088547159329	578.676911124143	1102.039557386052	245.942495823611	558.164180333080	844.133470404153	233.719442613294	875.348392694249	1119.686655275810	801.678559907205	1111.408910189254	1157.578068940269	723.052756189508	
21	4.098571428571	735.560917987921	961.400759803446	361.420578652559	541.125514788601	1006.838688309176	543.275472433261	698.959590862219	1436.100731390172	348.754838556313	820.046674388372	1361.595567023002	494.268276153852	760.172164513953	1435.017658705441	678.962966497486	720.694402989567	1493.855207327924	499.547606952297	778.783855351777	937.754746341783	632.873373825303	790.146361212733	729.625288417164	600.056350750982	700.685261454374	629.467535463635	667.078714133075	758.946904904845	569.185723323445	580.284736888862	745.719095203454	482.096776830988	585.209264874232	809.519926445172	771.507594383415	390.416522534695	757.445034687270	646.982155889483	315.491553840215	854.930936920189	583.082393554966	381.146440706644	881.933763963884	521.681998336821	379.211090321015	870.394627932087	452.394376352031	366.498122701727	816.840904748975	318.892559802644	311.630047093249	908.877262298477	226.565690040176	370.208725618589	711.243530064981	396.122404357205	593.107595825767	634.021984381904	298.560960286959	656.406097350833	662.498699192621	201.591064731556	590.963491547879	512.908262563125	43.340891495845	563.336413668023	685.173429502649	96.286924694104	596.693329764242	596.829754062683	36.269805042475	637.278186481445	805.069834280726	42.315611281574	624.761778872705	837.365732444595	40.727112432499	404.344087634152	915.521418719511	50.168167924756	329.011281778652	978.318521638818	132.969104836641	351.523573211154	1114.689806741939	114.794707304950	335.074929294624	574.750656774075	1102.080155452345	245.322694184718	552.451858347615	844.196316899374	233.923841984606	877.364125837201	1119.764180334931	797.772103630110	1110.397156245721	1165.606692228926	715.723443116662	
22	4.112500000000	735.988652949932	960.225716271582	359.790287278865	541.845782834945	1005.324598560850	541.983229373752	696.791646988020	1435.257946543326	346.914766726282	818.549683959370	1361.310335629674	492.153869811656	758.589600351535	1434.280815384738	677.009848828139	718.601203031248	1493.049835023471	497.712768917577	779.536963056156	937.285237574499	631.262842053555	789.333022627827	728.525691853894	598.788684948495	698.959765191419	628.830707228428	666.038802330453	756.539421334401	568.020727562790	579.421676422561	742.421364687655	480.890887288263	584.237438064728	810.759531605469	770.352042221195	388.155109571248	756.454725433370	644.765421488699	315.431416857085	855.054421570320	581.513899115005	379.479423243231	881.347305023012	519.458190764207	378.340240920554	869.133790698079	449.687071470603	366.409101548970	813.503486988105	316.818890857340	312.605943340619	904.502594824844	223.641501594459	371.010382877108	707.147828203718	395.161776170536	592.343063586115	629.289372218852	298.365876781437	656.021135898624	656.593230419102	201.063580905817	590.622831977678	505.869590634428	43.350823491926	563.389211484261	678.159551139749	96.190402139594	596.677070508881	589.777579426470	36.194074942012	637.234484959739	798.016906313133	42.164960384758	624.771298396485	829.991785938962	40.491200268607	406.144562981654	907.780132954984	47.944563585754	330.223320851012	972.885401141238	128.595420106057	352.521279987459	1108.434312435688	106.556913647672	335.093962466377	571.291223936465	1101.824964175466	244.468187717731	548.003684105154	843.874200936890	233.899690321978	878.897005610821	1119.640254881052	793.822401105986	1108.982786149123	1172.423953048181	708.580182193265	
